<?xml version="1.0" encoding="UTF-8"?> <!-- Generator: Adobe Illustrator 21.1.0, SVG Export Plug-In . SVG Version: 6.00 Build 0) --> <svg xmlns="http://www.w3.org/2000/svg" xmlns:xlink="http://www.w3.org/1999/xlink" version="1.2" id="Livello_1" x="0px" y="0px" viewBox="0 0 150 150" xml:space="preserve"> <g> <path fill="#F89A20" d="M134.4,15.7C120.2,1.6,99.9,0,75,0S29.7,1.6,15.6,15.7C1.4,29.9,0,50.2,0,75.1s1.4,45.2,15.6,59.4 C29.7,148.6,50.1,150,75,150s45.3-1.4,59.4-15.6C148.5,120.3,150,99.9,150,75C150,50.2,148.5,29.8,134.4,15.7L134.4,15.7z"></path> </g> <path fill="#FFFFFF" d="M69.5,69.4v8.5c0,5.2,0.3,10.6,3.1,13.2c2.3,2.3,6.6,2.8,11.1,2.9l22.7-0.1c0.5,0,1-0.4,1-1l-0.2-45.1 c0-0.5,0.4-1,1-1l12.6-0.1c0.5,0,1,0.4,1,1l0.3,57.5c0,0.5-0.4,1-1,1l-36.3,0.2v-0.1c-9.5,0-19.4-0.3-24.3-5.2 c-4.8-4.8-5.4-14.4-5.5-23.7v-8"></path> <path fill="#FFFFFF" d="M81.1,83.7v-8.5c0-5.2-0.3-10.6-3.1-13.2c-2.3-2.3-6.6-2.8-11.1-2.9l-22.7,0.1c-0.5,0-1,0.4-1,1l0.2,45.1 c0,0.5-0.4,1-1,1l-12.6,0.1c-0.5,0-1-0.4-1-1l-0.3-57.5c0-0.5,0.4-1,1-1l36.3-0.2v0.1c9.5,0,19.4,0.3,24.3,5.2 c4.8,4.8,5.4,14.4,5.5,23.7v8"></path> </svg> 